<svg width="47" height="25" viewBox="0 0 47 25" fill="none" xmlns="http://www.w3.org/2000/svg">
<path d="M42.9061 1.70654H9.20986C8.35342 1.70654 7.78246 2.09785 7.30666 2.78263L1.12126 12.3696C0.930936 12.6631 0.930936 12.9565 1.12126 13.1522L7.30666 22.7392C7.78246 23.3261 8.35342 23.8152 9.20986 23.8152H42.8109C44.1431 23.8152 45.1899 22.7392 45.1899 21.3696V4.1522C45.2851 2.78263 44.2383 1.70654 42.9061 1.70654Z" stroke="#2A2C2B" stroke-width="1.86086" stroke-linejoin="round"/>
<path d="M30.2522 17.4397L29.6101 18.0818C29.3349 18.357 28.8762 18.357 28.601 18.0818L24.9315 14.4123L21.262 18.0818C20.9868 18.357 20.5281 18.357 20.2529 18.0818L19.6107 17.4397C19.3355 17.1645 19.3355 16.7058 19.6107 16.4306L23.2802 12.7611L19.6107 9.09157C19.3355 8.81636 19.3355 8.35767 19.6107 8.08246L20.2529 7.4403C20.5281 7.16508 20.9868 7.16508 21.262 7.4403L24.9315 11.1098L28.601 7.4403C28.8762 7.16508 29.3349 7.16508 29.6101 7.4403L30.2522 8.08246C30.5274 8.35767 30.5274 8.81636 30.2522 9.09157L26.5827 12.7611L30.2522 16.4306C30.5274 16.7058 30.5274 17.1645 30.2522 17.4397Z" fill="#2A2C2B"/>
</svg>
